<?xml version="1.0" encoding="utf-8"?>
<!DOCTYPE svg PUBLIC "-//W3C//DTD SVG 1.1//EN" "http://www.w3.org/Graphics/SVG/1.1/DTD/svg11.dtd">
<svg version="1.1" id="Layer_1" xmlns="http://www.w3.org/2000/svg" xmlns:xlink="http://www.w3.org/1999/xlink" x="0px" y="0px"
	 width="654px" height="237px" viewBox="0 0 654 237" enable-background="new 0 0 654 237" xml:space="preserve">
<g>
	<g>
		<g>
			<path fill="#00AEEF" d="M247.771,154.218l1.131-45.892l-12.686,45.892h-12.361l-12.604-45.892l1.131,45.892h-13.896V97.176
				h20.845l10.745,39.914l10.585-39.914h20.845v57.042H247.771z"/>
			<path fill="#00AEEF" d="M271.956,154.218V97.176h42.175v10.988h-27.955v10.422h26.098v10.827h-26.098v13.573h30.541v11.23
				H271.956z"/>
			<path fill="#00AEEF" d="M369.201,145.896c-1.857,2.1-6.059,5.816-13.008,7.433c-3.15,0.728-5.898,0.889-9.13,0.889h-22.38V97.176
				h18.179c1.777,0,3.474,0,5.171,0.081c2.424,0.161,11.957,0.404,18.906,6.14c1.051,0.808,2.746,2.343,4.524,5.171
				c2.021,3.151,4.282,8.241,4.282,16.645C375.746,135.958,372.271,142.341,369.201,145.896z M358.213,113.901
				c-0.808-0.97-2.504-2.909-5.574-3.878c-2.666-0.889-5.09-0.808-7.838-0.808h-5.736v33.529h4.363
				c4.201,0,9.049-0.242,12.766-2.988c2.908-2.182,5.252-6.303,5.252-14.059C361.445,121.334,360.961,117.375,358.213,113.901z"/>
			<path fill="#00AEEF" d="M383.58,154.218V97.176h14.221v57.042H383.58z"/>
		</g>
	</g>
</g>
<g>
	<g>
		<g>
			<path fill="#00A651" d="M86.379,203.545c-2.585,2.909-9.695,9.373-20.845,9.373c-2.021,0-6.706-0.242-11.635-2.424
				c-15.028-6.787-15.755-23.35-15.755-27.875c0-3.474,0.404-12.441,6.948-20.359c2.586-3.232,9.049-9.857,20.684-9.857
				c7.676,0,15.108,3.15,20.118,8.887c2.101,2.424,3.394,4.93,3.959,5.898l-11.23,5.575c-0.809-1.616-1.374-2.505-1.858-3.151
				c-1.051-1.535-4.524-5.494-10.342-5.494c-1.616,0-5.413,0.324-8.646,3.394c-2.343,2.182-5.413,6.948-5.413,14.786
				c0,0.727,0,2.1,0.242,3.878c0.97,7.837,4.363,11.392,7.515,13.169c1.05,0.646,3.231,1.616,6.302,1.616
				c7.999,0,11.069-6.222,12.361-8.402l11.312,5.736C88.399,200.879,87.188,202.576,86.379,203.545z"/>
			<path fill="#00A651" d="M139.782,206.939c-3.07,2.504-8.563,5.979-17.937,5.979c-3.474,0-12.927-0.565-20.198-8.16
				c-7.676-8.08-8.16-18.906-8.16-22.3c0-2.989,0.403-11.069,5.413-18.421c2.908-4.283,9.533-11.635,22.784-11.635
				c10.826,0,17.371,4.848,20.36,7.918c5.494,5.656,8.564,14.947,8.564,22.784C150.609,191.83,146.812,201.203,139.782,206.939z
				 M132.673,169.692c-0.728-0.97-2.424-2.989-5.494-4.282c-2.424-0.969-4.524-1.051-5.494-1.051c-3.151,0-5.333,1.051-6.383,1.617
				c-5.736,3.23-7.757,10.26-7.757,16.32c0,7.756,2.424,11.957,4.768,14.462c2.504,2.667,5.897,4.12,9.614,4.12
				c1.858,0,6.302-0.484,9.857-4.281c3.231-3.475,4.362-7.999,4.524-12.523C136.551,176.883,134.369,172.035,132.673,169.692z"/>
			<path fill="#00A651" d="M191.812,211.221l-20.684-35.307l0.484,35.307h-13.735V154.18h13.978l20.846,35.793l-0.565-35.793h13.654
				v57.041H191.812z"/>
			<path fill="#00A651" d="M261.778,201.606c-4.929,8.968-15.189,10.181-17.937,10.503c-1.858,0.243-3.798,0.404-5.736,0.404
				c-11.312,0-17.694-3.797-21.492-6.867c-1.534-1.293-2.262-2.102-4.524-4.768l10.827-6.786c0.242,0.242,1.373,1.535,2.505,2.424
				c3.716,3.069,9.21,4.767,13.978,4.767c0.646,0,2.585,0,4.443-0.565c0.404-0.081,6.06-1.696,6.06-6.06
				c0-5.252-7.595-5.414-12.685-6.141c-2.666-0.323-5.413-0.808-8.08-1.454c-4.12-1.05-7.918-2.585-10.745-5.979
				c-0.566-0.646-1.697-2.1-2.424-4.201c-0.243-0.808-0.728-2.666-0.728-5.009c0-0.485,0.081-2.343,0.323-3.959
				c0.646-3.636,2.182-6.544,4.929-9.13c2.827-2.666,8.402-5.979,17.774-5.979c3.475,0,11.069,0.403,18.825,5.655
				c1.939,1.292,3.07,2.263,6.303,5.09l-10.504,7.515c-3.15-3.07-5.332-4.848-9.614-6.222c-0.728-0.161-2.909-0.808-5.333-0.808
				c-5.817,0-8.483,3.393-8.483,6.059c0,1.535,0.809,2.586,1.212,2.99c1.939,2.101,5.091,2.02,10.423,2.828
				c3.231,0.484,6.383,1.131,9.534,1.857c2.02,0.404,9.372,1.859,12.28,8.807c0.404,1.051,1.132,3.232,1.132,6.141
				C264.041,194.335,263.879,197.729,261.778,201.606z"/>
			<path fill="#00A651" d="M319.141,198.294c-4.768,13.331-19.795,14.22-23.027,14.22c-2.504,0-12.038-0.404-18.502-6.867
				c-5.494-5.494-5.655-12.523-5.655-19.633V154.18h14.381v35.55c0,5.091,0.404,7.029,2.667,8.807
				c2.827,2.182,6.625,2.182,7.595,2.182c2.666,0,5.009-0.323,7.029-2.101c2.666-2.344,2.747-5.736,2.747-8.969V154.18h14.301
				v31.834C320.676,190.215,320.514,194.335,319.141,198.294z"/>
			<path fill="#00A651" d="M329.722,211.221V154.18h14.22v45.003h22.3v12.038H329.722z"/>
			<path fill="#00A651" d="M391.933,165.41v45.811h-14.382V165.41h-14.866v-11.23h44.033v11.23H391.933z"/>
			<path fill="#00A651" d="M499.872,211.221l-20.684-35.307l0.484,35.307h-13.735V154.18h13.978l20.846,35.793l-0.565-35.793h13.654
				v57.041H499.872z"/>
			<path fill="#00A651" d="M549.235,165.41v45.811h-14.382V165.41h-14.866v-11.23h44.033v11.23H549.235z"/>
			<path fill="#00A651" d="M615.243,201.606c-4.929,8.968-15.189,10.181-17.937,10.503c-1.858,0.243-3.798,0.404-5.736,0.404
				c-11.312,0-17.694-3.797-21.492-6.867c-1.534-1.293-2.262-2.102-4.524-4.768l10.827-6.786c0.242,0.242,1.373,1.535,2.505,2.424
				c3.716,3.069,9.21,4.767,13.978,4.767c0.646,0,2.585,0,4.443-0.565c0.404-0.081,6.06-1.696,6.06-6.06
				c0-5.252-7.595-5.414-12.685-6.141c-2.666-0.323-5.413-0.808-8.08-1.454c-4.12-1.05-7.918-2.585-10.745-5.979
				c-0.566-0.646-1.697-2.1-2.424-4.201c-0.243-0.808-0.728-2.666-0.728-5.009c0-0.485,0.081-2.343,0.323-3.959
				c0.646-3.636,2.182-6.544,4.929-9.13c2.827-2.666,8.402-5.979,17.774-5.979c3.475,0,11.069,0.403,18.825,5.655
				c1.939,1.292,3.07,2.263,6.303,5.09l-10.504,7.515c-3.15-3.07-5.332-4.848-9.614-6.222c-0.728-0.161-2.909-0.808-5.333-0.808
				c-5.817,0-8.483,3.393-8.483,6.059c0,1.535,0.809,2.586,1.212,2.99c1.939,2.101,5.091,2.02,10.423,2.828
				c3.231,0.484,6.383,1.131,9.534,1.857c2.02,0.404,9.372,1.859,12.28,8.807c0.404,1.051,1.132,3.232,1.132,6.141
				C617.506,194.335,617.344,197.729,615.243,201.606z"/>
		</g>
	</g>
</g>
<path fill="#ED1C24" d="M83.056,97.246L67.866,71.392l-8.807,9.13v16.725H45.486V40.205H59.06v23.269l21.33-23.269h17.209
	L77.4,61.373l21.734,35.873H83.056z"/>
<path fill="#ED1C24" d="M138.963,97.246l-2.828-9.13h-21.007l-2.828,9.13H97.112l21.168-57.042h14.867l21.006,57.042H138.963z
	 M125.471,53.778l-7.029,24.077h14.462L125.471,53.778z"/>
<path fill="#ED1C24" d="M194.467,97.246l-11.392-20.36h-8.887v20.36h-14.382V40.205h25.693c1.616,0,3.232,0,4.848,0.081
	c2.585,0.161,11.634,0.727,16.079,8.887c0.808,1.535,2.262,4.848,2.262,9.534c0,6.383-2.505,9.776-4.443,11.635
	c-0.809,0.808-1.777,1.535-2.666,2.101c-1.051,0.565-2.263,1.131-4.605,2.02l13.169,22.784H194.467z M186.227,50.789h-12.12v15.513
	h11.796c0.565,0,2.181,0,3.797-0.565c4.606-1.535,4.766-5.898,4.766-7.352C194.467,50.95,188.731,50.789,186.227,50.789z"/>
<path fill="#ED1C24" d="M276.068,97.246h-14.705l-10.261-36.52l-10.342,36.52h-14.704l-14.463-57.042h14.301l8.402,39.267
	l10.342-39.267h12.686l10.664,39.267l8.322-39.267h14.221L276.068,97.246z"/>
<path fill="#ED1C24" d="M329.229,97.246l-2.828-9.13h-21.007l-2.827,9.13h-15.189l21.168-57.042h14.866l21.007,57.042H329.229z
	 M315.735,53.778l-7.029,24.077h14.462L315.735,53.778z"/>
<path fill="#ED1C24" d="M383.822,97.246l-20.684-35.308l0.485,35.308h-13.736V40.205h13.979l20.845,35.792l-0.565-35.792H397.8
	v57.042H383.822z"/>
<path fill="#ED1C24" d="M445.326,97.246l-13.493-42.467l-13.169,42.467h-15.189l21.168-57.042h14.866l21.007,57.042H445.326z"/>
<path fill="#00AEEF" d="M445.326,154.218l-13.493-42.467l-13.169,42.467h-15.189l21.168-57.042h14.866l21.007,57.042H445.326z"/>
<path fill="#00A651" d="M445.326,211.222l-13.493-42.467l-13.169,42.467h-15.189l21.168-57.042h14.866l21.007,57.042H445.326z"/>
</svg>
